<svg data-name="Layer 2" xmlns="http://www.w3.org/2000/svg" viewBox="0 0 2146 1053"><path d="M1024.763 534.11c-32.365-47.977-82.997-73.116-145.361-73.42-71.809-.349-133.1 19.298-177.249 56.82-47.662 40.505-73.037 99.53-73.383 170.692-.614 126.12 101.492 229.225 227.612 229.84a228.401 228.401 0 0 0 211.415-138.655l-76.445-32.777a145.376 145.376 0 0 1-134.565 88.258c-65.811-.32-121.41-32.5-139.054-92.645L1057 720s26.526-98.778-32.237-185.89zm-53.981 106.766c-92.2 9.007-241.069 15.762-241.069 15.762s6.818-104.299 148.827-104.246c52.226.019 89.798 18.777 92.242 88.484zM1326.298 471.543c-51.42 0-95.157 12.51-129.382 35.522v-14.728h-83.174v418.732h83.174V682.944c0-79.944 52.084-117.227 129.382-117.227 54.524 0 113.209 42.283 113.209 117.227v228.125h83.174V682.944c0-56.492-18.7-108.884-52.656-147.527-36.193-41.19-87.238-63.874-143.727-63.874zM175 603.787c4.242 233.174 0 307.282 0 307.282h83.174v-39.954C293.742 900.52 338.181 918 386.401 918c116.753 0 211.4-102.405 211.4-228.729s-83.095-228.728-199.849-228.728c-51.004 0-99.992 19.545-138.994 52.088C259 308 266 256 278.328 204.507a14.69 14.69 0 0 1 3.565-7.208l8.226-8.226a6.665 6.665 0 0 0 .883-8.519 6.516 6.516 0 0 0-8.973-1.61l5.469-30.22a10.525 10.525 0 0 0-8.406-12.231 10.524 10.524 0 0 0-12.23 8.406 10.494 10.494 0 0 0-20.637-3.825 10.494 10.494 0 0 0-20.637-3.825 10.494 10.494 0 0 0-20.637-3.824S168 219 175 603.787zM386.4 834.19c-70.352 0-127.589-65.01-127.589-144.918 0-38.089 15.386-74.544 43.324-102.65 26.7-26.86 61.625-42.267 95.817-42.267 39.538 0 65.322 20.462 79.989 37.627 23.247 27.206 36.049 65.31 36.049 107.29 0 79.908-57.237 144.918-127.59 144.918zM1939.223 133.356a10.494 10.494 0 0 0-20.637 3.825 10.494 10.494 0 0 0-20.637 3.824 10.494 10.494 0 0 0-20.636 3.825 10.524 10.524 0 0 0-12.23-8.406 10.525 10.525 0 0 0-8.407 12.23l5.469 30.221a6.516 6.516 0 0 0-8.973 1.61 6.665 6.665 0 0 0 .883 8.52l8.226 8.225a14.69 14.69 0 0 1 3.564 7.208c12.329 51.493 19.329 103.493 19.37 308.124-39.001-32.542-87.99-52.088-138.993-52.088-116.754 0-199.85 102.405-199.85 228.729s94.648 228.728 211.401 228.728c48.22 0 92.659-17.48 128.227-46.885V911h83.174s-4.242-74.107 0-307.282c7-384.787-29.951-470.362-29.951-470.362zm-309.039 555.847c0-41.982 12.802-80.085 36.049-107.29 14.667-17.165 40.45-37.627 79.989-37.627 34.192 0 69.117 15.405 95.817 42.267 27.938 28.105 43.324 64.56 43.324 102.65 0 79.907-57.237 144.917-127.59 144.917s-127.589-65.01-127.589-144.917z"/></svg>